<svg id="Layer_1" data-name="Layer 1" xmlns="http://www.w3.org/2000/svg" viewBox="0 0 400 300" data-imageid="user-interface-8" imageName="Chat" class="illustrations_image" style="width: 229px;"><title>#67_chatting_twocolour</title><rect x="217.52" y="24.08" width="106.86" height="125.09" fill="#e6e6e6"/><path d="M221.37,160.28l-22.8,24c1.13-6.81,2.26-15.87,3.89-27.95,6.21-46.16-28.67-51.75-28.67-51.75s-16,96.5,3.77,98.48c1.41.14,2.69.25,3.9.33l-1.1,7.94c31.3,6,49.78-47.52,49.78-47.52Z" fill="#fdb068" class="target-color"/><path d="M221.37,160.28l-22.8,24c1.13-6.81,2.26-15.87,3.89-27.95,6.21-46.16-28.67-51.75-28.67-51.75s-16,96.5,3.77,98.48c1.41.14,2.69.25,3.9.33l-1.1,7.94c31.3,6,49.78-47.52,49.78-47.52Z" fill="#fff" opacity="0.46"/><ellipse cx="175.61" cy="248.57" rx="139.12" ry="21.64" fill="#e6e6e6" opacity="0.45"/><path d="M173.79,104.59a29.53,29.53,0,0,0-8.06-1.57c-8.65-.56-32.27-.71-59.62,10.67-34.55,14.38,12.22,111.13,12.22,111.13L177,220.43S218,120.3,173.79,104.59Z" fill="#fdb068" class="target-color"/><rect x="288.27" y="128.47" width="65.11" height="40.72" transform="translate(-4.04 9.05) rotate(-1.61)" fill="#f2f2f2"/><polygon points="287.71 129.39 320.97 154.08 352.8 127.56 287.71 129.39" fill="#c9c9c9"/><path d="M116.06,120.73s22.32,1,21.31,35.61S152,181.88,152,181.88l25.55-40.68s8.14-.95,9.27,7.62c.72,5.53-9,29.14-16,45.19A22.77,22.77,0,0,0,177,220.43h0l-58.62,4.39-2-4.39Z" opacity="0.08"/><path d="M130.06,72.31s4.88,6.75,6.52,12.2a4.18,4.18,0,0,1-2.84,5.21c-2.76.79-6.71,1-9.77-2.25l-5.87-5s-3.57-3.24-1.27-8.55S127.3,68.05,130.06,72.31Z" fill="#f4a28c"/><polygon points="121.57 82.18 118.59 109.31 133.66 109.88 129.78 89.91 121.57 82.18" fill="#f4a28c"/><path d="M128.47,73.67a33.59,33.59,0,0,1-6.89,3.43,7,7,0,0,1,3.91,6.54,5.67,5.67,0,0,1-4.71,5.45l-5.37-9.26a8.51,8.51,0,0,1-.2-8.7,32.2,32.2,0,0,1,2.18-3.33c2-2.64,6.93-3.19,8.24-6.4a2,2,0,0,1,3.41-.5c2.08,2.54,4.21,7.24,1.34,11A7.93,7.93,0,0,1,128.47,73.67Z" fill="#24285b"/><path d="M126.13,83s-1.7-2.72-3.64-1.27.49,5.4,3.52,4.09Z" fill="#f4a28c"/><path d="M132.92,76.72l3.64,1.56a1.34,1.34,0,0,1,.36,2.23l-2.43,2.15Z" fill="#f4a28c"/><path d="M129.57,90.56A9.86,9.86,0,0,1,124.13,89s.23,5,6.78,8.43Z" fill="#ce8172" opacity="0.31"/><path d="M118.33,224.82s-30.39,11.3-23,28.25c5.51,12.72,33.45,1.85,51.75-3.55a54.82,54.82,0,0,1,20.18-2c12.57,1.08,28.55,4.94,33.92-2.36,7.91-10.73-2.22-20.13-24.19-24.69Z" fill="#24285b"/><path d="M123.57,132c-4-17.75-28.37-19.74-35.29-2.91-2.71,6.58-4.43,15.05-4,25.84C86,192.78,93.51,225,122,219.9s55.59-65,55.59-65l-13-7.33-40.06,39S128.94,155.5,123.57,132Z" fill="#fdb068" class="target-color"/><path d="M123.57,132c-4-17.75-28.37-19.74-35.29-2.91-2.71,6.58-4.43,15.05-4,25.84C86,192.78,93.51,225,122,219.9s55.59-65,55.59-65l-13-7.33-40.06,39S128.94,155.5,123.57,132Z" fill="#fff" opacity="0.46"/><path d="M166.19,148.47s6.81-12.28,14-9.72-2.72,5.92-2.72,5.92,5.06,4.42-1.63,9.25Z" fill="#f4a28c"/><path d="M154.81,238.82l1.9,8.77s9,6.61,14.67,2.47S168.37,241.14,154.81,238.82Z" fill="#fdb068" class="target-color"/><rect x="211.33" y="127.81" width="18.08" height="32.18" transform="translate(21.83 -28.88) rotate(7.89)" fill="#ffd200"/><path d="M230.14,163.82s4-15-5.65-15S218.56,164.69,230.14,163.82Z" fill="#f4a28c"/><path d="M115.07,110.32s-.14-6.43,4.45-9.44c3.46-2.26,11.5,1.57,15.24,3.59a4.5,4.5,0,0,1,2.33,5,4,4,0,0,1-3.43,2.88C128.25,113.51,115.07,110.32,115.07,110.32Z" fill="#fdb068" class="target-color"/><path d="M115.07,110.32s-.14-6.43,4.45-9.44c3.46-2.26,11.5,1.57,15.24,3.59a4.5,4.5,0,0,1,2.33,5,4,4,0,0,1-3.43,2.88C128.25,113.51,115.07,110.32,115.07,110.32Z" fill="#fff" opacity="0.46"/><polygon points="278.59 60.19 278.59 39.46 204.92 39.46 204.92 67.59 278.59 67.59 292.84 67.59 278.59 60.19" fill="#ffd200"/><polygon points="263.13 110.74 263.13 90.01 336.8 90.01 336.8 118.14 263.13 118.14 248.88 118.14 263.13 110.74" fill="#24285b"/><circle cx="305.68" cy="67.74" r="6.88" fill="#f2f2f2"/><circle cx="234.58" cy="117.49" r="6.88" fill="#f2f2f2"/><rect x="218.59" y="45.63" width="45.75" height="5.25" fill="#fff"/><rect x="218.59" y="55.63" width="45.75" height="5.25" fill="#fff" opacity="0.37"/><rect x="276.64" y="96.45" width="45.75" height="5.25" fill="#fff"/><rect x="276.64" y="106.45" width="45.75" height="5.25" fill="#fff" opacity="0.37"/><path d="M254.48,227.09s-13.25-3.56-16.18-15.86c0,0,20.49-4.23,21.16,16.93Z" fill="#fdb068" opacity="0.58" class="target-color"/><path d="M256.1,225.77s-9.31-14.57-1.23-28.28c0,0,15.63,9.84,8.78,28.28Z" fill="#fdb068" opacity="0.73" class="target-color"/><path d="M258.48,225.77s4.82-15.45,19.57-18.44c0,0,2.82,10-9.48,18.44Z" fill="#fdb068" class="target-color"/><polygon points="248.88 225.47 251.64 243.81 268.54 243.81 270.95 225.47 248.88 225.47" fill="#24285b"/><rect x="297.1" y="53.53" width="17.25" height="3.47" fill="#adadad"/><rect x="225.96" y="102.85" width="17.25" height="3.47" fill="#adadad" opacity="0.55"/></svg>